<svg xmlns="http://www.w3.org/2000/svg" viewBox="0 0 512 512" width="512" height="512">
  <defs>
    <radialGradient id="idle-body" gradientUnits="userSpaceOnUse" cx="184" cy="233" r="306" gradientTransform="translate(0 233) scale(1 .885) translate(0 -233)">
      <stop offset="0" stop-color="#7D94FF"/>
      <stop offset="0.45" stop-color="#4D6BFE"/>
      <stop offset="1" stop-color="#3A55E6"/>
    </radialGradient>
    <linearGradient id="idle-tail" x1="0" y1="1" x2="0" y2="0">
      <stop offset="0" stop-color="#3A55E6"/>
      <stop offset="1" stop-color="#7D94FF"/>
    </linearGradient>
    <linearGradient id="idle-belly" x1="0" y1="0" x2="0" y2="1">
      <stop offset="0" stop-color="#FFFFFF"/>
      <stop offset="1" stop-color="#E3E9FF"/>
    </linearGradient>
    <clipPath id="idle-clip"><path d="M46 302 C46 207 131 132 238 132 C345 132 428 207 428 302 C428 412 354 470 238 470 C122 470 46 412 46 302 Z"/></clipPath>
    <filter id="idle-soft" x="-50%" y="-50%" width="200%" height="200%"><feGaussianBlur stdDeviation="2.5"/></filter>
  </defs>
  <ellipse class="shadow" cx="240" cy="494" rx="150" ry="13" fill="#1B2150" opacity=".15"/>
  <g class="fish" >
    <g class="tail" transform="translate(360 208) rotate(10)">
      <path d="M-30 30 C-32 -8 -32 -36 -28 -56 C-40 -72 -50 -100 -44 -124 C-38 -148 -8 -150 -4 -126 C-2 -110 2 -96 10 -86 C28 -100 56 -118 82 -114 C102 -110 104 -88 90 -78 C72 -58 48 -46 28 -44 C28 -20 28 6 30 30 Z" fill="url(#idle-tail)" stroke="#2335A6" stroke-width="7" stroke-linejoin="round"/>
      <path d="M10 -86 C8 -72 5 -62 1 -54" fill="none" stroke="#2335A6" stroke-width="4" stroke-linecap="round" opacity=".5"/>
      <ellipse cx="-24" cy="-118" rx="7" ry="13" transform="rotate(-10 -24 -118)" fill="#fff" opacity=".35"/>
    </g>
    <g class="body">
      <path d="M46 302 C46 207 131 132 238 132 C345 132 428 207 428 302 C428 412 354 470 238 470 C122 470 46 412 46 302 Z" fill="url(#idle-body)"/>
      <g clip-path="url(#idle-clip)">
        <path d="M70 326 C130 314 208 318 262 344 C312 368 346 410 360 446 C326 454 286 452 238 452 C138 452 76 410 66 348 C65 338 66 330 70 326 Z" fill="url(#idle-belly)"/>
      </g>
      <path d="M46 302 C46 207 131 132 238 132 C345 132 428 207 428 302 C428 412 354 470 238 470 C122 470 46 412 46 302 Z" fill="none" stroke="#2335A6" stroke-width="7"/>
      <ellipse cx="170" cy="178" rx="46" ry="20" transform="rotate(-24 170 178)" fill="#fff" opacity=".35"/>
      <circle cx="224" cy="158" r="8" fill="#fff" opacity=".35"/>
    </g>
    <g class="fin" transform="rotate(0 292 353)">
      <path d="M292 334 C322 330 354 352 370 386 C376 400 366 412 352 406 C328 396 306 386 292 372 C282 364 280 340 292 334 Z" fill="#4D6BFE"/>
      <path d="M292 334 C322 330 354 352 370 386 C376 400 366 412 352 406 C328 396 306 386 292 372" fill="none" stroke="#2335A6" stroke-width="6" stroke-linecap="round" stroke-linejoin="round"/>
      <path d="M312 350 C330 356 344 368 352 382" fill="none" stroke="#fff" stroke-width="4" stroke-linecap="round" opacity=".35"/>
    </g>
    <g class="face">
      <g class="blush" filter="url(#idle-soft)" fill="#FF9DBE" opacity="0.85">
        <ellipse cx="98" cy="300" rx="19" ry="11"/>
        <ellipse cx="246" cy="300" rx="19" ry="11"/>
      </g>
      <g class="eyes">
      <ellipse cx="128" cy="262" rx="17" ry="22" fill="#1B2150"/>
      <circle cx="134" cy="253" r="7" fill="#fff"/>
      <circle cx="123" cy="271" r="3.2" fill="#fff" opacity=".9"/>
      <ellipse cx="218" cy="262" rx="17" ry="22" fill="#1B2150"/>
      <circle cx="224" cy="253" r="7" fill="#fff"/>
      <circle cx="213" cy="271" r="3.2" fill="#fff" opacity=".9"/></g>
      <g class="mouth"><path d="M160 292 Q167 300 174 292 Q181 300 188 292" fill="none" stroke="#1B2150" stroke-width="5" stroke-linecap="round" stroke-linejoin="round"/></g>
    </g>
  </g>
  <g class="fx"></g>
</svg>
